<svg xmlns="http://www.w3.org/2000/svg"  viewBox="0 0 48 48" width="48px" height="48px"><path d="M 24 4 C 12.972066 4 4 12.972074 4 24 C 4 35.027926 12.972066 44 24 44 C 35.027934 44 44 35.027926 44 24 C 44 12.972074 35.027934 4 24 4 z M 24 7 C 33.406615 7 41 14.593391 41 24 C 41 33.406609 33.406615 41 24 41 C 14.593385 41 7 33.406609 7 24 C 7 14.593391 14.593385 7 24 7 z M 23.476562 10.978516 A 1.50015 1.50015 0 0 0 22 12.5 L 22 14 L 18.5 14 A 1.50015 1.50015 0 0 0 17 15.5 L 17 23.5 L 17 32.5 A 1.50015 1.50015 0 0 0 18.5 34 L 22 34 L 22 35.5 A 1.50015 1.50015 0 1 0 25 35.5 L 25 34 L 27 34 C 30.295865 34 33 31.295865 33 28 C 33 25.726389 31.66732 23.802134 29.787109 22.785156 C 30.501381 21.856986 31 20.751911 31 19.5 C 31 16.480226 28.519774 14 25.5 14 L 25 14 L 25 12.5 A 1.50015 1.50015 0 0 0 23.476562 10.978516 z M 20 17 L 23.253906 17 A 1.50015 1.50015 0 0 0 23.740234 17 L 25.5 17 C 26.898226 17 28 18.101774 28 19.5 C 28 20.898226 26.898226 22 25.5 22 L 20 22 L 20 17 z M 20 25 L 25.5 25 L 27 25 C 28.674135 25 30 26.325865 30 28 C 30 29.674135 28.674135 31 27 31 L 23.746094 31 A 1.50015 1.50015 0 0 0 23.259766 31 L 20 31 L 20 25 z"/></svg>